<svg width="32" height="32" viewBox="0 0 32 32" fill="none" xmlns="http://www.w3.org/2000/svg">
<path d="M22.6667 8.23996V2.66663H20V8.23996C18.4533 8.79996 17.3333 10.2666 17.3333 12C17.3333 13.7333 18.4533 15.2 20 15.76V20C20 22.9466 17.6133 25.3333 14.6667 25.3333C11.72 25.3333 9.33333 22.9466 9.33333 20V18.44L11.4533 20.56L13.3333 18.6666L6.66666 12V20C6.66666 24.4133 10.2533 28 14.6667 28C19.08 28 22.6667 24.4133 22.6667 20V15.76C24.2133 15.2133 25.3333 13.7466 25.3333 12C25.3333 10.2533 24.2133 8.79996 22.6667 8.23996ZM21.3333 13.3333C20.6 13.3333 20 12.7333 20 12C20 11.2666 20.6 10.6666 21.3333 10.6666C22.0667 10.6666 22.6667 11.2666 22.6667 12C22.6667 12.7333 22.0667 13.3333 21.3333 13.3333Z" fill="#F66616"/>
</svg>
