<svg width="64" height="64" viewBox="0 0 64 64" fill="none" xmlns="http://www.w3.org/2000/svg">
<path d="M43.9467 27.76C42.9067 28.8 41.1734 28.8 40.1334 27.76L28.2134 15.8667L9.41335 34.64L7.65335 32.96C4.53335 29.84 4.53335 24.7734 7.65335 21.6534L18.96 10.3467C22.08 7.22669 27.1467 7.22669 30.2667 10.3467L43.9467 24C44.9867 25.04 44.9867 26.72 43.9467 27.76ZM45.8134 22.1067C47.8934 24.1867 47.8934 27.5734 45.8134 29.6534C42.4267 33.04 38.8534 30.24 38.2667 29.6534L28.24 19.6267L13.3867 34.48C12.3467 35.52 12.3467 37.2 13.3867 38.24C14.4267 39.28 16.1067 39.28 17.1734 38.24L29.4934 25.92L31.3867 27.8134L19.0667 40.1334C18.0267 41.1734 18.0267 42.8534 19.0667 43.8934C20.1067 44.9334 21.7867 44.9334 22.8534 43.8934L35.1734 31.5734L37.0667 33.4667L24.7467 45.7867C23.7067 46.8267 23.7067 48.5067 24.7467 49.5467C25.7867 50.5867 27.4667 50.5867 28.5067 49.5467L40.8267 37.2267L42.72 39.12L30.4 51.44C29.36 52.48 29.36 54.16 30.4 55.2C31.44 56.24 33.12 56.24 34.16 55.2L56.3467 32.96C59.4667 29.84 59.4667 24.7734 56.3467 21.6534L45.04 10.3467C41.9734 7.28002 37.0134 7.22669 33.8934 10.1867L45.8134 22.1067Z" fill="#F66616"/>
</svg>
