<svg width="65" height="65" viewBox="0 0 65 65" fill="none" xmlns="http://www.w3.org/2000/svg">
<path d="M38.7812 22.1328C38.8281 22.1484 38.8906 22.1562 38.9688 22.1562H39.5312C40.75 22.1562 41.9766 21.9922 43.2109 21.6641C44.4453 21.3359 45.5625 20.8828 46.5625 20.3047C47.5625 19.7109 48.375 19.0078 49 18.1953C49.625 17.3672 49.9375 16.4609 49.9375 15.4766C49.9375 14.9453 49.8203 14.4766 49.5859 14.0703C49.3516 13.6484 49.0234 13.2969 48.6016 13.0156C48.1953 12.7344 47.6953 12.5234 47.1016 12.3828C46.5234 12.2266 45.8828 12.1484 45.1797 12.1484C43.9453 12.1484 42.7422 12.3047 41.5703 12.6172C40.3984 12.9297 39.2969 13.3594 38.2656 13.9062C37.2344 14.4375 36.2891 15.0703 35.4297 15.8047C34.5703 16.5234 33.8281 17.3125 33.2031 18.1719C32.5781 19.0156 32.0938 19.8984 31.75 20.8203C31.4062 21.7422 31.2344 22.6641 31.2344 23.5859C31.2344 24.5078 31.4062 25.3828 31.75 26.2109C32.8281 26.2422 33.8359 26.3203 34.7734 26.4453C35.7109 26.5703 36.5234 26.7656 37.2109 27.0312C37.8984 27.2812 38.4375 27.6094 38.8281 28.0156C39.2188 28.4219 39.4141 28.9141 39.4141 29.4922C39.4141 30.1172 39.1797 30.5938 38.7109 30.9219C38.2422 31.25 37.6562 31.4141 36.9531 31.4141C36.3906 31.4141 35.8125 31.3203 35.2188 31.1328C34.625 30.9453 34.0469 30.6875 33.4844 30.3594C32.9375 30.0156 32.4062 29.6094 31.8906 29.1406C31.3906 28.6562 30.9375 28.125 30.5312 27.5469C28.7969 27.6875 27.1875 28.0938 25.7031 28.7656C24.2344 29.4219 22.9609 30.2812 21.8828 31.3438C20.8203 32.3906 19.9844 33.6016 19.375 34.9766C18.7656 36.3359 18.4609 37.7734 18.4609 39.2891C18.4609 40.5234 18.6641 41.6406 19.0703 42.6406C19.4922 43.625 20.1094 44.4688 20.9219 45.1719C21.75 45.875 22.7734 46.4141 23.9922 46.7891C25.2266 47.1641 26.6484 47.3516 28.2578 47.3516C30.0391 47.3516 31.7266 47.0781 33.3203 46.5312C34.9297 46 36.4141 45.3203 37.7734 44.4922C39.1328 43.6641 40.3672 42.7578 41.4766 41.7734C42.5859 40.7734 43.5469 39.8281 44.3594 38.9375C45.1875 38.0469 45.8516 37.2656 46.3516 36.5938C46.8516 35.9062 47.1797 35.4609 47.3359 35.2578L48.1797 35.9141C47.8203 36.4297 47.3359 37.1094 46.7266 37.9531C46.1172 38.7812 45.375 39.6641 44.5 40.6016C43.6406 41.5391 42.6406 42.4844 41.5 43.4375C40.375 44.375 39.1094 45.2266 37.7031 45.9922C36.3125 46.7578 34.7891 47.375 33.1328 47.8438C31.4766 48.3281 29.6875 48.5703 27.7656 48.5703C25.6562 48.5703 23.8359 48.3047 22.3047 47.7734C20.7734 47.2422 19.5 46.5234 18.4844 45.6172C17.4844 44.7266 16.7422 43.6953 16.2578 42.5234C15.7734 41.3359 15.5312 40.0859 15.5312 38.7734C15.5312 37.8516 15.6484 36.9141 15.8828 35.9609C16.1172 35.0078 16.4766 34.0781 16.9609 33.1719C17.4453 32.2656 18.0703 31.4062 18.8359 30.5938C19.6016 29.7812 20.5078 29.0625 21.5547 28.4375C22.6016 27.8125 23.8047 27.3047 25.1641 26.9141C26.5234 26.5234 28.0469 26.2891 29.7344 26.2109C29.4531 25.6484 29.2344 25.0625 29.0781 24.4531C28.9219 23.8281 28.8438 23.1875 28.8438 22.5312C28.8438 21.3281 29.0469 20.1953 29.4531 19.1328C29.8594 18.0547 30.4141 17.0703 31.1172 16.1797C31.8359 15.2734 32.6719 14.4688 33.625 13.7656C34.5938 13.0625 35.625 12.4688 36.7188 11.9844C37.8125 11.4844 38.9453 11.1094 40.1172 10.8594C41.3047 10.5938 42.4766 10.4609 43.6328 10.4609C44.8203 10.4609 45.875 10.5859 46.7969 10.8359C47.7344 11.0703 48.5234 11.4062 49.1641 11.8438C49.8047 12.2813 50.2969 12.8125 50.6406 13.4375C50.9844 14.0469 51.1562 14.7188 51.1562 15.4531C51.1562 16.2656 50.9844 17.0312 50.6406 17.75C50.3125 18.4688 49.8594 19.125 49.2812 19.7188C48.7188 20.2969 48.0547 20.8203 47.2891 21.2891C46.5391 21.7422 45.7344 22.125 44.875 22.4375C44.0312 22.75 43.1562 22.9922 42.25 23.1641C41.3438 23.3203 40.4688 23.3984 39.625 23.3984C39.3438 23.3984 39.1172 23.3906 38.9453 23.375C38.7734 23.3594 38.6719 23.3516 38.6406 23.3516L38.7812 22.1328ZM38.1719 29.4453C38.1719 29.0703 38 28.7656 37.6562 28.5312C37.3281 28.2812 36.8906 28.0859 36.3438 27.9453C35.8125 27.8047 35.2031 27.7031 34.5156 27.6406C33.8438 27.5625 33.1562 27.5156 32.4531 27.5C32.75 27.9375 33.0781 28.3281 33.4375 28.6719C33.8125 29 34.1953 29.2812 34.5859 29.5156C34.9766 29.75 35.3672 29.9297 35.7578 30.0547C36.1641 30.1797 36.5469 30.2422 36.9062 30.2422C37.3281 30.2422 37.6406 30.1641 37.8438 30.0078C38.0625 29.8516 38.1719 29.6641 38.1719 29.4453Z" fill="#120E0E"/>
</svg>
