<svg width="32" height="32" viewBox="0 0 32 32" fill="none" xmlns="http://www.w3.org/2000/svg">
<path d="M22.6667 29.3333C24.88 29.3333 26.6667 27.5466 26.6667 25.3333C26.6667 23.12 24.88 21.3333 22.6667 21.3333C20.9333 21.3333 19.4667 22.4533 18.9067 24H12.1867L14.84 19.92C15.2267 19.9733 15.6133 20 16 20C16.3867 20 16.7733 19.9733 17.16 19.92L18.52 22.0133C19.08 21.3066 19.8 20.7466 20.6533 20.4L19.8533 19.16C23.08 17.6933 25.3333 14.4533 25.3333 10.6666H6.66666C6.66666 14.4533 8.92 17.6933 12.16 19.16L6.89333 27.2666C6.49333 27.88 6.66666 28.7066 7.28 29.1066C7.89333 29.5066 8.72 29.3333 9.12 28.72L10.4533 26.6533H18.9067C19.4667 28.2133 20.9333 29.3333 22.6667 29.3333ZM22.6667 24C23.4 24 24 24.6 24 25.3333C24 26.0666 23.4 26.6666 22.6667 26.6666C21.9333 26.6666 21.3333 26.0666 21.3333 25.3333C21.3333 24.6 21.9333 24 22.6667 24ZM9.89333 13.3333H22.1067C21.08 15.68 18.72 17.3333 16 17.3333C13.28 17.3333 10.92 15.68 9.89333 13.3333Z" fill="#F66616"/>
<path d="M12.5467 9.33329H13.88C14.08 7.79996 14.1867 7.14663 12.6933 5.38663C12.1333 4.71996 11.7867 4.35996 12.08 2.66663H10.76C10.48 4.14663 10.8 5.39996 11.9467 6.61329C12.24 6.93329 13 7.50663 12.5467 9.33329Z" fill="#F66616"/>
<path d="M15.8533 9.33329H17.1867C17.3867 7.79996 17.4933 7.14663 16 5.38663C15.44 4.71996 15.0933 4.34663 15.3867 2.66663H14.0667C13.7867 4.14663 14.1067 5.39996 15.2533 6.61329C15.56 6.93329 16.32 7.50663 15.8533 9.33329Z" fill="#F66616"/>
<path d="M19.2133 9.33329H20.5467C20.7467 7.79996 20.8533 7.14663 19.36 5.38663C18.8 4.71996 18.4533 4.35996 18.7467 2.66663H17.4267C17.1467 4.14663 17.4667 5.39996 18.6133 6.61329C18.9067 6.93329 19.6667 7.50663 19.2133 9.33329Z" fill="#F66616"/>
</svg>
