<svg width="64" height="64" viewBox="0 0 64 64" fill="none" xmlns="http://www.w3.org/2000/svg">
<path d="M22.8 32C19.9467 30.1067 16.8 28.6133 13.3867 27.7067C16.8 28.6133 19.9467 30.1067 22.8 32ZM50.6133 27.7067C47.1733 28.6133 43.9733 30.1333 41.0933 32.08C43.9733 30.1333 47.1733 28.6133 50.6133 27.7067Z" fill="#F66616"/>
<path d="M41.3067 25.68C40.8267 18.24 37.8133 10.9867 32.16 5.33337C26.4533 11.04 23.3067 18.2934 22.6933 25.68C26.1067 27.4934 29.2533 29.84 32 32.6934C34.7467 29.8667 37.8933 27.52 41.3067 25.68ZM23.9733 32.7467C23.6 32.48 23.1733 32.24 22.7733 31.9734C23.1733 32.2667 23.6 32.48 23.9733 32.7467ZM41.0933 32.08C40.7467 32.32 40.3733 32.5067 40.0267 32.7734C40.3733 32.5067 40.7467 32.32 41.0933 32.08ZM32 41.2C26.2667 32.4534 16.48 26.6667 5.33333 26.6667C5.33333 40.8534 14.2933 52.8534 26.7467 57.3067C28.4267 57.92 30.1867 58.3734 32 58.6667C33.8133 58.3467 35.5467 57.8934 37.2533 57.3067C49.7067 52.8534 58.6667 40.8534 58.6667 26.6667C47.52 26.6667 37.7333 32.4534 32 41.2Z" fill="#F66616"/>
</svg>
