<svg width="64" height="64" viewBox="0 0 64 64" fill="none" xmlns="http://www.w3.org/2000/svg">
<path d="M56 61.3333C53.2533 61.3333 50.5067 60.6667 48 59.3333C42.96 62 37.04 62 32 59.3333C26.96 62 21.04 62 16 59.3333C13.4667 60.6667 10.7467 61.3333 8.00001 61.3333H5.33334V56H8.00001C10.7733 56 13.5467 55.0667 16 53.3333C20.88 56.8 27.12 56.8 32 53.3333C36.88 56.8 43.12 56.8 48 53.3333C50.4267 55.0667 53.2267 56 56 56H58.6667V61.3333H56ZM45.3333 4C42.4 4 40 6.4 40 9.33333C40 12.2667 42.4 14.6667 45.3333 14.6667C48.2667 14.6667 50.6667 12.2667 50.6667 9.33333C50.6667 6.4 48.2667 4 45.3333 4ZM38.48 22.6133L32.48 26.6667L42.6667 34.6667V44.9067C44.08 45.92 45.4133 46.9867 46.64 48.0267C44.8267 49.5733 42.5067 50.6667 40 50.6667C36.8 50.6667 33.9467 48.9067 32 46.6667C30.0533 48.9067 27.2 50.6667 24 50.6667C23.12 50.6667 22.2667 50.5333 21.44 50.2933C13.84 45.0667 8.00001 39.2533 8.00001 35.4133C8.00001 32.6667 10.6933 32 12.9333 32C15.5467 32 19.0133 32.8267 22.8 34.2133L21.3867 25.9467C21.0933 24.16 21.8667 22.2667 23.4667 21.1733L29.2 17.3067L23.8667 16.32L16.3467 21.4667L13.3333 17.0667L22.6667 10.6667L37.4667 13.4133C38.6667 13.6533 39.9467 14.4 40.72 15.7867L43.0667 19.92C45.36 23.9467 49.7067 26.6667 54.6667 26.6667V32C47.76 32 41.7067 28.2133 38.48 22.6133ZM27.4667 29.6L28.64 36.6667C31.0933 37.7867 35.2533 40.0533 37.3333 41.3333V37.3333L27.4667 29.6Z" fill="#F66616"/>
</svg>
