<svg width="24" height="24" viewBox="0 0 24 24" fill="none" xmlns="http://www.w3.org/2000/svg">
<path d="M23.5118 6.35834C23.3752 5.90595 23.1083 5.49337 22.7376 5.16169C22.3669 4.83001 21.9053 4.59078 21.3989 4.46782C19.521 4.0075 12.0083 4.00001 12.0083 4.00001C12.0083 4.00001 4.49682 3.99251 2.61775 4.43249C2.11162 4.56111 1.65102 4.80372 1.28017 5.13703C0.90933 5.47034 0.640691 5.88316 0.500048 6.33586C0.00479858 8.01228 1.75693e-06 11.4893 1.75693e-06 11.4893C1.75693e-06 11.4893 -0.00479483 14.9834 0.486857 16.6427C0.762662 17.5602 1.57209 18.2849 2.60096 18.5322C4.49802 18.9925 11.9903 19 11.9903 19C11.9903 19 19.503 19.0075 21.3809 18.5686C21.8875 18.4458 22.3495 18.2072 22.7211 17.8762C23.0927 17.5451 23.3611 17.1333 23.4998 16.6813C23.9962 15.0059 23.9998 11.53 23.9998 11.53C23.9998 11.53 24.0238 8.03476 23.5118 6.35834ZM9.60521 14.7105L9.6112 8.2874L15.8552 11.5043L9.60521 14.7105Z" fill="#120E0E"/>
</svg>
